<?xml version="1.0" encoding="UTF-8"?>
<svg xmlns="http://www.w3.org/2000/svg" xmlns:xlink="http://www.w3.org/1999/xlink" width="50pt" height="50pt" viewBox="0 0 50 50" version="1.1">
<g id="surface1">
<rect x="0" y="0" width="50" height="50" style="fill:rgb(100%,100%,100%);fill-opacity:1;stroke:none;"/>
<path style=" stroke:none;fill-rule:evenodd;fill:rgb(0%,0%,0%);fill-opacity:1;" d="M 25 47.792969 C 12.410156 47.792969 2.207031 37.589844 2.207031 25 C 2.207031 12.410156 12.410156 2.207031 25 2.207031 C 37.589844 2.207031 47.792969 12.410156 47.792969 25 C 47.792969 37.589844 37.589844 47.792969 25 47.792969 Z M 25 47.792969 "/>
<path style=" stroke:none;fill-rule:evenodd;fill:rgb(100%,100%,100%);fill-opacity:1;" d="M 25.007812 28.441406 L 6.5 36.101562 C 10.398438 42.65625 17.464844 46.652344 25.085938 46.613281 C 32.6875 46.59375 39.730469 42.554688 43.589844 35.984375 Z M 21.800781 23.035156 L 24.75 3.5 C 17.148438 3.597656 10.144531 7.695312 6.34375 14.285156 C 2.523438 20.875 2.484375 28.992188 6.222656 35.621094 Z M 28.113281 23.292969 L 43.867188 35.484375 C 47.53125 28.855469 47.449219 20.796875 43.632812 14.246094 C 39.832031 7.695312 32.875 3.617188 25.300781 3.5 Z M 28.113281 23.292969 "/>
</g>
</svg>
